<svg enable-background="new 0 0 98.5 92.8" height="92.8" viewBox="0 0 98.5 92.8" width="98.5" xmlns="http://www.w3.org/2000/svg"><g fill="#f4c000"><path d="m25.1 39.9c1.9.5 4.6.6 5.8 2.4 1.6 2.1.9 5.6.6 8-.5 4.4-.8 9.3 2.1 13 2.7 3.5 7.1 3.4 9.9 0 3.2-3.9 2.9-8.9 2.2-13.6-.2-1.7-.9-3.9 1.1-4.8 1-.4 2.5-.2 3.5-.4 2.3-.2 4.4-1 6.3-2.3 1.3-.9 2.2-2 2.9-3.2 2.6.2 5.2 0 7.6-.8 0 .5-.1 39.8-.2 40.2-.4 3.3-4.1 4.7-6.9 5.6-6.6 2.3-14 2-20.8 1-6.2-.9-13.5-2.4-13.8-10 .1-2.6.1-5.3.1-8-.1-7.9-.1-15.8-.4-23.7-.1-2.3-3.5-2.3-3.6 0-.2 7.6-.1 15.2-.1 22.8v9.1c.2 7.1 4.7 11.1 11.2 13 6.7 1.9 14.4 2.5 21.3 1.7 5.1-.6 15.8-2.8 17-9 .1-.4.1-.7.2-1.1 12.4-3.7 22.9-13.8 22.5-27.4-.2-5.7-3.4-11.6-8.6-14.1-3.8-1.8-9.4-2.4-13.7-.9 0-.4 0-.8 0-1.3.2-.2.5-.4.7-.6 2.8-3 3.6-7.4 2.7-11.3-1.9-8-11.2-11.2-18.4-8.5-3.7-3.6-8.7-5.7-13.9-5.4-4.4.3-9.8 2.4-12.6 6.1-4.1 0-8.3 2-10.9 5.2-5.6 6.8-2.1 16.2 6.2 18.3zm46 9.5c4-.7 9.1-1.9 10.3 3.3.9 4.1-2.1 10.2-6.4 11-2.6.5-1.2 4.8 1.5 3.6 5.6-2.6 9.8-9.2 8.3-15.5-1.7-6.8-8.1-7-13.7-5.8 0-1.5 0-2.9 0-4.4 4.3-1 8.8-1.6 12.7 1 4.3 2.8 5.7 8.3 4.8 13.1-1.7 9.7-8.6 15.9-17.6 18.3.1-.1.1-21.1.1-24.6zm-46.5-26.7c1.8-1.2 4-1.9 6.1-1.7 2 .2 3.5 1.5 5.4 1.8.8.1 1.7-.3 1.7-1.3-.1-2-1.4-3.3-3.1-4.1 2.4-1.7 4.8-3 8.2-3.1 4.5-.1 8.6 2 11.5 5.4.6.7 1.8.7 2.6.3 4.7-2.5 12.8-.6 13.6 5.4.7 6.1-4.6 7.9-9.5 7.9-.1-1.1-.4-2.3-.9-3.4-1.3-3-5.8-.4-4.4 2.6 1.1 2.4-.2 4.9-2.3 6.2-1.9 1.2-4.1 1.1-6.2 1.4-3.4.5-5.9 2.5-6.1 6-.2 2.4.6 4.7.8 7 .2 2.2.3 6.6-2.1 7.9-3.5 2-4.1-4.9-4.1-6.5 0-2.3.4-4.7.6-7 .3-3.6-.1-7.4-3.2-9.8-3-2.3-7.7-1.6-10.3-4.2-3.7-3.2-1.8-8.4 1.7-10.8z"/><path d="m57 76.8c.6-5.1.5-24.9-.5-29-.3-1.3-2.3-1.3-2.6 0-1 4.1-.7 23.9-.1 29 .2 2.1 3 2.1 3.2 0z"/><path d="m38.2 78.2c1.1-.9.6-8.5 0-10.1-.5-1.3-2.2-1.3-2.7 0-.6 1.6-1.1 9.3 0 10.1.9.6 1.8.6 2.7 0z"/><path d="m24.4 6.8c.5-1.1.4-2.7 0-3.9-.3-.9-1.6-.9-1.9 0-.4 1.2-.5 2.8 0 3.9.4.7 1.6.7 1.9 0z"/><path d="m22.5 10.2c-.4 1.2-.5 2.8 0 3.9.3.7 1.6.7 1.9 0 .5-1.1.4-2.7 0-3.9-.3-1-1.6-1-1.9 0z"/><path d="m25.2 9.4c1.1.5 2.7.4 3.9 0 .9-.3.9-1.6 0-1.9-1.2-.4-2.8-.5-3.9 0-.8.3-.8 1.6 0 1.9z"/><path d="m17.9 9.4c1.1.5 2.7.4 3.9 0 .9-.3.9-1.6 0-1.9-1.2-.4-2.8-.5-3.9 0-.7.3-.7 1.6 0 1.9z"/><circle cx="36.9" cy="6.2" r="1.7"/><path d="m59.1 10.7c.9 0 1.7-.8 1.7-1.7s-.8-1.7-1.7-1.7-1.7.8-1.7 1.7c0 1 .7 1.7 1.7 1.7z"/><circle cx="68.1" cy="5.1" r="1.7"/></g></svg>
